<mxfile host="app.diagrams.net" modified="2024-02-23T08:24:50.634Z" agent="Mozilla/5.0 (Windows NT 10.0; Win64; x64) AppleWebKit/537.36 (KHTML, like Gecko) Chrome/119.0.0.0 Safari/537.36" etag="AJM0J1J5Y49bJK00jL3E" version="23.1.6" type="github">
  <diagram id="C5RBs43oDa-KdzZeNtuy" name="Page-1">
    <mxGraphModel dx="748" dy="670" grid="1" gridSize="10" guides="1" tooltips="1" connect="1" arrows="1" fold="1" page="1" pageScale="1" pageWidth="827" pageHeight="1169" math="0" shadow="0">
      <root>
        <mxCell id="WIyWlLk6GJQsqaUBKTNV-0" />
        <mxCell id="WIyWlLk6GJQsqaUBKTNV-1" parent="WIyWlLk6GJQsqaUBKTNV-0" />
        <mxCell id="Sk5eVXv0QJa8INyckC6k-43" value="审核监督" style="rounded=1;whiteSpace=wrap;html=1;absoluteArcSize=1;arcSize=14;strokeWidth=2;" vertex="1" parent="WIyWlLk6GJQsqaUBKTNV-1">
          <mxGeometry x="80" y="280" width="480" height="240" as="geometry" />
        </mxCell>
        <mxCell id="Sk5eVXv0QJa8INyckC6k-44" value="余彬彬" style="ellipse;whiteSpace=wrap;html=1;aspect=fixed;" vertex="1" parent="WIyWlLk6GJQsqaUBKTNV-1">
          <mxGeometry x="280" y="280" width="80" height="80" as="geometry" />
        </mxCell>
        <mxCell id="Sk5eVXv0QJa8INyckC6k-45" value="吴樊丽" style="ellipse;whiteSpace=wrap;html=1;aspect=fixed;" vertex="1" parent="WIyWlLk6GJQsqaUBKTNV-1">
          <mxGeometry x="200" y="440" width="80" height="80" as="geometry" />
        </mxCell>
        <mxCell id="Sk5eVXv0QJa8INyckC6k-46" value="曹恩敏" style="ellipse;whiteSpace=wrap;html=1;aspect=fixed;" vertex="1" parent="WIyWlLk6GJQsqaUBKTNV-1">
          <mxGeometry x="360" y="440" width="80" height="80" as="geometry" />
        </mxCell>
        <mxCell id="Sk5eVXv0QJa8INyckC6k-47" value="" style="endArrow=classic;startArrow=classic;html=1;rounded=0;exitX=1;exitY=0.5;exitDx=0;exitDy=0;entryX=0;entryY=0.5;entryDx=0;entryDy=0;" edge="1" parent="WIyWlLk6GJQsqaUBKTNV-1" source="Sk5eVXv0QJa8INyckC6k-45" target="Sk5eVXv0QJa8INyckC6k-46">
          <mxGeometry width="50" height="50" relative="1" as="geometry">
            <mxPoint x="240" y="270" as="sourcePoint" />
            <mxPoint x="350" y="270" as="targetPoint" />
            <Array as="points">
              <mxPoint x="310" y="480" />
              <mxPoint x="330" y="480" />
            </Array>
          </mxGeometry>
        </mxCell>
        <mxCell id="Sk5eVXv0QJa8INyckC6k-48" value="审核" style="text;html=1;align=center;verticalAlign=middle;resizable=0;points=[];autosize=1;strokeColor=none;fillColor=none;" vertex="1" parent="WIyWlLk6GJQsqaUBKTNV-1">
          <mxGeometry x="285" y="450" width="50" height="30" as="geometry" />
        </mxCell>
        <mxCell id="Sk5eVXv0QJa8INyckC6k-49" value="" style="endArrow=none;html=1;rounded=0;exitX=1;exitY=0;exitDx=0;exitDy=0;" edge="1" parent="WIyWlLk6GJQsqaUBKTNV-1" source="Sk5eVXv0QJa8INyckC6k-45" target="Sk5eVXv0QJa8INyckC6k-44">
          <mxGeometry width="50" height="50" relative="1" as="geometry">
            <mxPoint x="270" y="440" as="sourcePoint" />
            <mxPoint x="340" y="540" as="targetPoint" />
            <Array as="points">
              <mxPoint x="320" y="400" />
            </Array>
          </mxGeometry>
        </mxCell>
        <mxCell id="Sk5eVXv0QJa8INyckC6k-50" value="" style="endArrow=none;html=1;rounded=0;entryX=0.275;entryY=0.063;entryDx=0;entryDy=0;entryPerimeter=0;" edge="1" parent="WIyWlLk6GJQsqaUBKTNV-1" target="Sk5eVXv0QJa8INyckC6k-46">
          <mxGeometry width="50" height="50" relative="1" as="geometry">
            <mxPoint x="320" y="400" as="sourcePoint" />
            <mxPoint x="340" y="540" as="targetPoint" />
          </mxGeometry>
        </mxCell>
        <mxCell id="Sk5eVXv0QJa8INyckC6k-52" value="CG项目" style="text;html=1;align=center;verticalAlign=middle;resizable=0;points=[];autosize=1;strokeColor=none;fillColor=none;" vertex="1" parent="WIyWlLk6GJQsqaUBKTNV-1">
          <mxGeometry x="5" y="388" width="70" height="30" as="geometry" />
        </mxCell>
        <mxCell id="Sk5eVXv0QJa8INyckC6k-53" value="审核监督" style="rounded=1;whiteSpace=wrap;html=1;absoluteArcSize=1;arcSize=14;strokeWidth=2;" vertex="1" parent="WIyWlLk6GJQsqaUBKTNV-1">
          <mxGeometry x="75" y="600" width="480" height="240" as="geometry" />
        </mxCell>
        <mxCell id="Sk5eVXv0QJa8INyckC6k-54" value="余彬彬" style="ellipse;whiteSpace=wrap;html=1;aspect=fixed;" vertex="1" parent="WIyWlLk6GJQsqaUBKTNV-1">
          <mxGeometry x="275" y="600" width="80" height="80" as="geometry" />
        </mxCell>
        <mxCell id="Sk5eVXv0QJa8INyckC6k-55" value="赵泽武" style="ellipse;whiteSpace=wrap;html=1;aspect=fixed;" vertex="1" parent="WIyWlLk6GJQsqaUBKTNV-1">
          <mxGeometry x="195" y="760" width="80" height="80" as="geometry" />
        </mxCell>
        <mxCell id="Sk5eVXv0QJa8INyckC6k-56" value="曹恩敏" style="ellipse;whiteSpace=wrap;html=1;aspect=fixed;" vertex="1" parent="WIyWlLk6GJQsqaUBKTNV-1">
          <mxGeometry x="355" y="760" width="80" height="80" as="geometry" />
        </mxCell>
        <mxCell id="Sk5eVXv0QJa8INyckC6k-57" value="" style="endArrow=classic;startArrow=classic;html=1;rounded=0;exitX=1;exitY=0.5;exitDx=0;exitDy=0;entryX=0;entryY=0.5;entryDx=0;entryDy=0;" edge="1" parent="WIyWlLk6GJQsqaUBKTNV-1" source="Sk5eVXv0QJa8INyckC6k-55" target="Sk5eVXv0QJa8INyckC6k-56">
          <mxGeometry width="50" height="50" relative="1" as="geometry">
            <mxPoint x="235" y="590" as="sourcePoint" />
            <mxPoint x="345" y="590" as="targetPoint" />
            <Array as="points">
              <mxPoint x="305" y="800" />
              <mxPoint x="325" y="800" />
            </Array>
          </mxGeometry>
        </mxCell>
        <mxCell id="Sk5eVXv0QJa8INyckC6k-58" value="审核" style="text;html=1;align=center;verticalAlign=middle;resizable=0;points=[];autosize=1;strokeColor=none;fillColor=none;" vertex="1" parent="WIyWlLk6GJQsqaUBKTNV-1">
          <mxGeometry x="280" y="770" width="50" height="30" as="geometry" />
        </mxCell>
        <mxCell id="Sk5eVXv0QJa8INyckC6k-59" value="" style="endArrow=none;html=1;rounded=0;exitX=1;exitY=0;exitDx=0;exitDy=0;" edge="1" parent="WIyWlLk6GJQsqaUBKTNV-1" source="Sk5eVXv0QJa8INyckC6k-55" target="Sk5eVXv0QJa8INyckC6k-54">
          <mxGeometry width="50" height="50" relative="1" as="geometry">
            <mxPoint x="265" y="760" as="sourcePoint" />
            <mxPoint x="335" y="860" as="targetPoint" />
            <Array as="points">
              <mxPoint x="315" y="720" />
            </Array>
          </mxGeometry>
        </mxCell>
        <mxCell id="Sk5eVXv0QJa8INyckC6k-60" value="" style="endArrow=none;html=1;rounded=0;entryX=0.275;entryY=0.063;entryDx=0;entryDy=0;entryPerimeter=0;" edge="1" parent="WIyWlLk6GJQsqaUBKTNV-1" target="Sk5eVXv0QJa8INyckC6k-56">
          <mxGeometry width="50" height="50" relative="1" as="geometry">
            <mxPoint x="315" y="720" as="sourcePoint" />
            <mxPoint x="335" y="860" as="targetPoint" />
          </mxGeometry>
        </mxCell>
        <mxCell id="Sk5eVXv0QJa8INyckC6k-61" value="FC项目" style="text;html=1;align=center;verticalAlign=middle;resizable=0;points=[];autosize=1;strokeColor=none;fillColor=none;" vertex="1" parent="WIyWlLk6GJQsqaUBKTNV-1">
          <mxGeometry x="5" y="708" width="60" height="30" as="geometry" />
        </mxCell>
      </root>
    </mxGraphModel>
  </diagram>
</mxfile>
